<svg preserveAspectRatio="none" width="100%" height="100%" overflow="visible" style="display: block;" viewBox="0 0 22 22" fill="none" xmlns="http://www.w3.org/2000/svg">
<g id="user-sticker-square">
<path id="Subtract" fill-rule="evenodd" clip-rule="evenodd" d="M0 0H22V13.75H13.75V22H0V0ZM15.25 15.25H21.75L15.25 21.75V15.25ZM2.29289 7.20711L4.29289 9.2071L5.70711 7.79289L3.70711 5.79289L2.29289 7.20711ZM7.79289 5.70711L5.79289 3.70711L7.20711 2.29289L9.2071 4.29289L7.79289 5.70711ZM10.4747 10.4748C9.1079 11.8416 6.89181 11.8416 5.52498 10.4748L4.11076 11.889C6.25865 14.0369 9.7411 14.0369 11.8889 11.889C14.0368 9.7411 14.0368 6.2587 11.8889 4.11082L10.4747 5.52503C11.8416 6.89187 11.8416 9.1079 10.4747 10.4748Z" fill="var(--fill-0, #070E41)"/>
</g>
</svg>
