<svg preserveAspectRatio="none" width="100%" height="100%" overflow="visible" style="display: block;" viewBox="0 0 22 20" fill="none" xmlns="http://www.w3.org/2000/svg">
<g id="browser-code-2--code-browser-tags-angle-bracket">
<path id="Union" fill-rule="evenodd" clip-rule="evenodd" d="M0 0H22V20H0V0ZM2 5V18H20V5H2ZM16.0858 11.5L13.7929 9.2071L15.2071 7.79289L18.2071 10.7929L18.9142 11.5L18.2071 12.2071L15.2071 15.2071L13.7929 13.7929L16.0858 11.5ZM6.79289 7.79289L3.79289 10.7929L3.08579 11.5L3.79289 12.2071L6.79289 15.2071L8.20711 13.7929L5.91421 11.5L8.20711 9.2071L6.79289 7.79289ZM8.56367 15.1489L11.5637 7.14888L13.4363 7.85112L10.4363 15.8511L8.56367 15.1489Z" fill="var(--fill-0, #070E41)"/>
</g>
</svg>
