<svg preserveAspectRatio="none" width="100%" height="100%" overflow="visible" style="display: block;" viewBox="0 0 22.5 22.5" fill="none" xmlns="http://www.w3.org/2000/svg">
<g id="user-arrows-account-switch--user-arrows-account-switch-reload">
<path id="Union" fill-rule="evenodd" clip-rule="evenodd" d="M0 11.25C0 5.0368 5.0368 0 11.25 0C13.9752 0 16.4737 0.96947 18.4196 2.58039L19.75 1.25L20.75 2.25V6.75H16.25L15.25 5.75L16.642 4.35803C15.1554 3.19325 13.2835 2.5 11.25 2.5C6.41751 2.5 2.5 6.41751 2.5 11.25C2.5 16.0825 6.41751 20 11.25 20C16.0825 20 20 16.0825 20 11.25C20 10.6491 19.9396 10.0635 19.8249 9.4987L22.275 9.00134C22.4227 9.7289 22.5 10.4811 22.5 11.25C22.5 17.4632 17.4632 22.5 11.25 22.5C5.0368 22.5 0 17.4632 0 11.25ZM14.5 9C14.5 10.7949 13.0449 12.25 11.25 12.25C9.4551 12.25 8 10.7949 8 9C8 7.20507 9.4551 5.75 11.25 5.75C13.0449 5.75 14.5 7.20507 14.5 9ZM17.5133 14.9037L17.291 14.7981C15.4589 13.9278 13.4099 13.4413 11.2499 13.4413C9.08988 13.4413 7.04087 13.9278 5.20878 14.7981L4.98657 14.9037C6.24417 17.0549 8.5783 18.5 11.25 18.5C13.9216 18.5 16.2557 17.0549 17.5133 14.9037Z" fill="var(--fill-0, #070E41)"/>
</g>
</svg>
