<svg preserveAspectRatio="none" width="100%" height="100%" overflow="visible" style="display: block;" viewBox="0 0 14.5 13.1818" fill="none" xmlns="http://www.w3.org/2000/svg">
<g id="browser-code-2--code-browser-tags-angle-bracket">
<path id="Union" fill-rule="evenodd" clip-rule="evenodd" d="M0 0H14.5V13.1818H0V0ZM1.31818 3.29545V11.8636H13.1818V3.29545H1.31818ZM10.602 7.57955L9.09078 6.06832L10.0229 5.13622L12.0001 7.1135L12.4662 7.57955L12.0001 8.04559L10.0229 10.0229L9.09078 9.09077L10.602 7.57955ZM4.47713 5.13622L2.49986 7.1135L2.03382 7.57955L2.49986 8.04559L4.47713 10.0229L5.40923 9.09077L3.898 7.57955L5.40923 6.06832L4.47713 5.13622ZM5.64424 9.9845L7.62153 4.71176L8.85574 5.1746L6.87847 10.4473L5.64424 9.9845Z" fill="var(--fill-0, #6C718E)"/>
</g>
</svg>
