<svg preserveAspectRatio="none" width="100%" height="100%" overflow="visible" style="display: block;" viewBox="0 0 14.5002 14.5" fill="none" xmlns="http://www.w3.org/2000/svg">
<g id="phone-personal-hotspot--phone-personal-hotspot-connection-mobile-signal-device-share">
<path id="Union" fill-rule="evenodd" clip-rule="evenodd" d="M8.58466 1.31818C8.33157 1.31813 8.08369 1.39004 7.86992 1.52552C7.65615 1.66101 7.4853 1.85448 7.37732 2.08337C7.26933 2.31227 7.22865 2.56714 7.26002 2.81828C7.29139 3.06942 7.39352 3.30646 7.5545 3.50175L6.53818 4.34143C6.2179 3.95335 6.01459 3.48218 5.95198 2.98291C5.88937 2.48364 5.97005 1.97686 6.1846 1.52171C6.39915 1.06656 6.73872 0.681816 7.16369 0.412377C7.58865 0.142937 8.08148 -8.54134e-05 8.58466 3.82687e-08H10.0347C10.7382 3.82687e-08 11.413 0.279495 11.9105 0.776999C12.408 1.2745 12.6875 1.94926 12.6875 2.65284C12.6875 3.35642 12.408 4.03118 11.9105 4.52868C11.413 5.02619 10.7382 5.30568 10.0347 5.30568V3.9875C10.2099 3.9875 10.3835 3.95298 10.5454 3.88591C10.7073 3.81883 10.8545 3.72052 10.9784 3.59659C11.1023 3.47265 11.2006 3.32552 11.2677 3.16359C11.3348 3.00166 11.3693 2.82811 11.3693 2.65284C11.3693 2.47757 11.3348 2.30402 11.2677 2.14209C11.2006 1.98016 11.1023 1.83303 10.9784 1.70909C10.8545 1.58516 10.7073 1.48685 10.5454 1.41978C10.3835 1.3527 10.2099 1.31818 10.0347 1.31818H8.58466ZM10.5455 13.8409V14.5H0V3.82687e-08H0.659091H4.94318V1.31818H1.31818V13.1818H9.22727V8.56818H10.5455V13.8409ZM6.59091 10.5455H3.95455V11.8636H6.59091V10.5455ZM9.0625 4.64659C9.0625 3.90973 9.66029 3.31193 10.3972 3.31193V1.99375C9.69358 1.99375 9.01882 2.27324 8.52132 2.77075C8.02381 3.26825 7.74432 3.94301 7.74432 4.64659C7.74432 5.35017 8.02381 6.02493 8.52132 6.52243C9.01882 7.01994 9.69358 7.29943 10.3972 7.29943H11.8472C12.3329 7.29948 12.8094 7.16614 13.2246 6.91397C13.6397 6.66179 13.9777 6.30046 14.2016 5.86938C14.4255 5.43829 14.5268 4.954 14.4943 4.46932C14.4619 3.98464 14.2969 3.51817 14.0175 3.1208L12.9393 3.87941C13.0797 4.07934 13.1626 4.31399 13.1788 4.55779C13.1951 4.80158 13.1441 5.04515 13.0315 5.26197C12.9188 5.47878 12.7488 5.6605 12.54 5.78734C12.3311 5.91417 12.0915 5.98125 11.8472 5.98125H10.3972C10.0432 5.98125 9.70371 5.84064 9.45341 5.59034C9.20312 5.34004 9.0625 5.00056 9.0625 4.64659Z" fill="var(--fill-0, #6E7390)"/>
</g>
</svg>
