<svg preserveAspectRatio="none" width="100%" height="100%" overflow="visible" style="display: block;" viewBox="0 0 20 20" fill="none" xmlns="http://www.w3.org/2000/svg">
<g id="behance-fill">
<path id="Vector" d="M6.20337 4.45845C6.73616 4.45845 7.22796 4.49968 7.67878 4.62335C8.1296 4.7058 8.49843 4.8707 8.82635 5.07683C9.15418 5.28295 9.4001 5.57152 9.56402 5.94254C9.72793 6.31357 9.80993 6.76704 9.80993 7.26174C9.80993 7.83889 9.68702 8.33364 9.4001 8.70464C9.15418 9.07564 8.74435 9.40547 8.25255 9.6528C8.94927 9.85889 9.48202 10.23 9.80993 10.7246C10.1378 11.2193 10.3427 11.8377 10.3427 12.5386C10.3427 13.1157 10.2198 13.6104 10.0149 14.0226C9.80993 14.4349 9.48202 14.8059 9.11318 15.0533C8.74435 15.3006 8.29353 15.5067 7.80173 15.6304C7.30992 15.7541 6.81813 15.8366 6.32632 15.8366H0.834517V4.45845H6.20337ZM5.8755 9.07564C6.32632 9.07564 6.69518 8.95197 6.98206 8.74588C7.26894 8.53972 7.39189 8.16869 7.39189 7.71522C7.39189 7.46787 7.35091 7.22052 7.26894 7.05562C7.18697 6.89072 7.06403 6.76704 6.90009 6.64337C6.73616 6.56092 6.57223 6.47847 6.3673 6.43724C6.16238 6.39602 5.95747 6.39602 5.71157 6.39602H3.33452V9.07564H5.8755ZM5.99845 13.9402C6.24435 13.9402 6.49026 13.899 6.69518 13.8577C6.90009 13.8166 7.10501 13.7341 7.26894 13.6104C7.43287 13.4867 7.55583 13.3631 7.67878 13.1569C7.76075 12.9508 7.84272 12.7035 7.84272 12.4149C7.84272 11.8377 7.67878 11.4255 7.35091 11.1369C7.02304 10.8896 6.57223 10.7659 6.03943 10.7659H3.33452V13.9402H5.99845ZM13.9083 13.899C14.2362 14.2288 14.7279 14.3936 15.3837 14.3936C15.8345 14.3936 16.2444 14.27 16.5722 14.0639C16.9001 13.8166 17.105 13.5691 17.187 13.3218H19.1952C18.8673 14.3112 18.3755 15.0121 17.7198 15.4656C17.064 15.8778 16.2853 16.1251 15.3427 16.1251C14.6869 16.1251 14.1132 16.0015 13.5804 15.7953C13.0476 15.5892 12.6378 15.3006 12.2689 14.8884C11.9001 14.5173 11.6132 14.0639 11.4493 13.528C11.2444 12.9921 11.1624 12.4149 11.1624 11.7553C11.1624 11.1369 11.2444 10.5597 11.4493 10.0238C11.6542 9.48789 11.9411 9.03439 12.3099 8.62214C12.6788 8.25114 13.1296 7.92134 13.6214 7.71522C14.1542 7.50909 14.6869 7.38542 15.3427 7.38542C16.0394 7.38542 16.6542 7.50909 17.187 7.79767C17.7198 8.08624 18.1296 8.41605 18.4574 8.91072C18.7853 9.36422 19.0313 9.90014 19.1952 10.4773C19.2771 11.0545 19.3181 11.6316 19.2771 12.2912H13.3345C13.3345 12.9508 13.5804 13.5691 13.9083 13.899ZM16.4903 9.57038C16.2033 9.2818 15.7525 9.11688 15.2198 9.11688C14.8509 9.11688 14.564 9.1993 14.3181 9.32297C14.0722 9.44663 13.9083 9.61155 13.7444 9.77647C13.5804 9.94138 13.4984 10.1475 13.4574 10.3536C13.4165 10.5597 13.3755 10.7246 13.3755 10.8896H17.064C16.9821 10.2711 16.7771 9.85888 16.4903 9.57038ZM12.8837 5.24172H17.4738V6.35479H12.8837V5.24172Z" fill="var(--fill-0, #070E41)"/>
</g>
</svg>
