<svg preserveAspectRatio="none" width="100%" height="100%" overflow="visible" style="display: block;" viewBox="0 0 20 20" fill="none" xmlns="http://www.w3.org/2000/svg">
<g id="linkedin-fill">
<path id="Vector" d="M5.78366 4.16653C5.78335 4.84513 5.37166 5.45578 4.74271 5.71053C4.11376 5.9653 3.39315 5.8133 2.92068 5.32622C2.4482 4.83913 2.31822 4.11422 2.59201 3.49332C2.86581 2.87242 3.48871 2.47951 4.16699 2.49987C5.06788 2.52691 5.78407 3.26523 5.78366 4.16653ZM5.83366 7.06653H2.50033V17.4998H5.83366V7.06653ZM11.1003 7.06653H7.78366V17.4998H11.067V12.0248C11.067 8.97484 15.042 8.69151 15.042 12.0248V17.4998H18.3337V10.8915C18.3337 5.74987 12.4503 5.94153 11.067 8.46651L11.1003 7.06653Z" fill="var(--fill-0, #070E41)"/>
</g>
</svg>
