<svg preserveAspectRatio="none" width="100%" height="100%" overflow="visible" style="display: block;" viewBox="0 0 22 22" fill="none" xmlns="http://www.w3.org/2000/svg">
<g id="medium-line">
<path id="Vector" d="M5.64475 3.66667H16.3553C17.4478 3.66667 18.3334 4.55228 18.3334 5.64473V8.81205C18.1707 8.85307 18.0153 8.90769 17.8821 8.97474C17.5154 9.14451 17.192 9.3984 16.9229 9.73152C16.4897 10.2683 16.2274 10.9937 16.1636 11.8089C16.1499 11.9707 16.1454 12.1336 16.1484 12.296C16.186 13.9119 16.9546 15.2437 18.3334 15.551V16.3553C18.3334 17.4477 17.4478 18.3333 16.3553 18.3333H5.64475C4.55229 18.3333 3.66668 17.4477 3.66668 16.3553V5.64473C3.66668 4.55228 4.55229 3.66667 5.64475 3.66667ZM19.2501 5.64473C19.2501 4.04602 17.9541 2.75 16.3553 2.75H5.64475C4.04603 2.75 2.75 4.04602 2.75 5.64473V16.3553C2.75 17.954 4.04603 19.25 5.64475 19.25H16.3553C17.9541 19.25 19.2501 17.954 19.2501 16.3553V5.64473ZM18.3334 9.43983V11.2579H17.7686C17.8041 10.4627 18.0001 9.80962 18.3334 9.43983ZM18.3334 11.6069V13.4981C17.9289 13.0274 17.6929 12.3528 17.7351 11.6069H18.3334ZM16.2226 6.6917L16.2356 6.68885V6.58809H13.5784L11.1111 12.3871L8.64376 6.58809H5.78027V6.68885L5.79312 6.6917C6.27814 6.80117 6.52438 6.96444 6.52438 7.55321V14.4462C6.52438 15.035 6.27719 15.1982 5.79218 15.3077L5.77932 15.3105V15.4116H7.72211V15.3109L7.70927 15.308C7.22423 15.1985 6.97799 15.0353 6.97799 14.4465V7.95305L10.1475 15.4116H10.3273L13.5892 7.74504V14.6167C13.5476 15.0817 13.3036 15.2254 12.8644 15.3245L12.8514 15.3275V15.4275H16.2356V15.3275L16.2226 15.3245C15.783 15.2254 15.5331 15.0817 15.4916 14.6167L15.4893 7.55321H15.4916C15.4916 6.96444 15.7378 6.80117 16.2226 6.6917Z" fill="var(--fill-0, #070E41)"/>
</g>
</svg>
