<svg preserveAspectRatio="none" width="100%" height="100%" overflow="visible" style="display: block;" viewBox="0 0 20 20" fill="none" xmlns="http://www.w3.org/2000/svg">
<g id="youtube-line">
<path id="Vector" d="M16.3406 5.82931C16.2771 5.58109 16.0976 5.3938 15.8919 5.33603C15.5265 5.23415 13.7524 5.0003 10.0024 5.0003C6.25237 5.0003 4.47865 5.23424 4.11176 5.33632C3.90802 5.39299 3.72847 5.58024 3.66413 5.82931C3.57347 6.18299 3.3357 7.66359 3.3357 10.0003C3.3357 12.337 3.57347 13.8176 3.66438 14.1723C3.7276 14.4195 3.90718 14.6068 4.11198 14.6643C4.47865 14.7664 6.25237 15.0003 10.0024 15.0003C13.7524 15.0003 15.5265 14.7665 15.893 14.6643C16.0967 14.6076 16.2763 14.4204 16.3406 14.1713C16.4313 13.8176 16.6691 12.3336 16.6691 10.0003C16.6691 7.66696 16.4313 6.18299 16.3406 5.82931ZM17.9551 5.41545C18.3357 6.9003 18.3357 10.0003 18.3357 10.0003C18.3357 10.0003 18.3357 13.1003 17.9551 14.5851C17.743 15.4064 17.1241 16.0518 16.3396 16.27C14.9158 16.667 10.0024 16.667 10.0024 16.667C10.0024 16.667 5.09186 16.667 3.66519 16.27C2.87777 16.0488 2.25888 15.4033 2.04967 14.5851C1.66903 13.1003 1.66903 10.0003 1.66903 10.0003C1.66903 10.0003 1.66903 6.9003 2.04967 5.41545C2.26178 4.59424 2.88068 3.94878 3.66519 3.7306C5.09186 3.33363 10.0024 3.33363 10.0024 3.33363C10.0024 3.33363 14.9158 3.33363 16.3396 3.7306C17.127 3.95181 17.7459 4.59726 17.9551 5.41545ZM8.33572 12.917V7.08363L13.3357 10.0003L8.33572 12.917Z" fill="var(--fill-0, #070E41)"/>
</g>
</svg>
